<mxfile host="app.diagrams.net" modified="2023-05-30T02:56:07.283Z" agent="Mozilla/5.0 (Macintosh; Intel Mac OS X 10_15_7) AppleWebKit/537.36 (KHTML, like Gecko) Chrome/113.0.0.0 Safari/537.36" version="21.3.3" etag="5qC8ImmFAGkJohkcA5xF" type="github">
  <diagram name="第 1 页" id="UvIh6jDDLSxTtuPeuDzs">
    <mxGraphModel>
      <root>
        <mxCell id="0" />
        <mxCell id="1" parent="0" />
      </root>
    </mxGraphModel>
  </diagram>
</mxfile>
